<?xml version="1.0" encoding="utf-8"?>
<!-- Generator: Adobe Illustrator 17.1.0, SVG Export Plug-In . SVG Version: 6.00 Build 0)  -->
<!DOCTYPE svg PUBLIC "-//W3C//DTD SVG 1.1//EN" "http://www.w3.org/Graphics/SVG/1.1/DTD/svg11.dtd">
<svg version="1.1" id="Layer_1" xmlns="http://www.w3.org/2000/svg" xmlns:xlink="http://www.w3.org/1999/xlink" x="0px" y="0px"
	 viewBox="0 0 283.5 99.2" enable-background="new 0 0 283.5 99.2" xml:space="preserve">
<g>
	<g>
		<polygon points="105.3,8.6 108.4,8.6 93.1,30.4 93.2,30.3 77.8,30.3 77.8,52.2 65.8,52.2 50.5,74 11,74 57,8.6 105.3,8.6 		"/>
		<polygon points="11,79.6 13.5,79.6 13.5,87.8 11,87.8 11,79.6 		"/>
		<polygon points="15.6,79.6 19.5,79.6 24.3,85.6 24.3,85.6 24.3,79.6 26.8,79.6 26.8,87.8 22.9,87.8 18.1,81.8 18.1,81.8 
			18.1,87.8 15.6,87.8 15.6,79.6 		"/>
		<path d="M36.9,85.2c0,0.4,0.1,0.6,0.2,0.7c0.1,0.1,0.4,0.2,0.9,0.2h3.2c0.7,0,1-0.2,1-0.7c0-0.3-0.1-0.5-0.4-0.6
			c-0.3-0.1-0.9-0.2-1.9-0.2h-1.5c-1.2,0-2.1-0.1-2.6-0.2c-0.6-0.1-0.9-0.4-1.1-0.8c-0.2-0.3-0.2-0.8-0.2-1.6c0-1,0.2-1.7,0.7-2
			c0.5-0.3,1.3-0.5,2.5-0.5h3.5c1.2,0,2.1,0.2,2.5,0.5s0.7,1,0.7,1.8v0.3h-2.5c0-0.3-0.1-0.5-0.2-0.6c-0.2-0.1-0.5-0.2-1-0.2H38
			c-0.7,0-1,0.2-1,0.7s0.2,0.7,0.7,0.7c0.5,0,0.9,0,1.4,0h1.7c1.2,0,2,0.1,2.6,0.2c0.6,0.2,1,0.4,1.2,0.8c0.2,0.3,0.3,0.9,0.3,1.6
			c0,0.7-0.1,1.3-0.3,1.6c-0.2,0.4-0.6,0.6-1.1,0.8c-0.5,0.1-1.4,0.2-2.5,0.2h-3.3c-1.2,0-2-0.2-2.5-0.5c-0.4-0.3-0.7-0.9-0.7-1.7
			v-0.6H36.9L36.9,85.2z"/>
		<path d="M54.6,84.6h2.5v0.8c0,0.9-0.2,1.5-0.7,1.9c-0.5,0.4-1.3,0.6-2.3,0.6h-4.1c-1.2,0-2.1-0.2-2.7-0.7
			c-0.6-0.4-0.8-1.2-0.8-2.3v-2.4c0-1.1,0.3-1.9,0.8-2.3c0.6-0.4,1.5-0.7,2.8-0.7h3c1.5,0,2.6,0.2,3.2,0.5c0.6,0.4,0.8,1.1,0.8,2.1
			l0,0.4h-2.5l0-0.2c0-0.3-0.1-0.4-0.3-0.6c-0.2-0.1-0.5-0.2-0.9-0.2h-2.7c-0.6,0-1,0.1-1.3,0.4c-0.2,0.2-0.4,0.7-0.4,1.3v0.8
			c0,0.7,0.1,1.2,0.3,1.4c0.2,0.2,0.6,0.3,1.2,0.3h2.7c0.6,0,1-0.1,1.1-0.2C54.4,85.4,54.5,85.1,54.6,84.6L54.6,84.6z"/>
		<polygon points="58.8,79.6 61.3,79.6 61.3,82.5 66.6,82.5 66.6,79.6 69.1,79.6 69.1,87.8 66.6,87.8 66.6,84.7 61.3,84.7 
			61.3,87.8 58.8,87.8 58.8,79.6 		"/>
		<path d="M73.5,83.3v0.8c0,0.7,0.1,1.2,0.3,1.4c0.2,0.2,0.6,0.3,1.2,0.3h3.1c0.6,0,1-0.1,1.2-0.4c0.2-0.2,0.3-0.7,0.3-1.3v-0.8
			c0-0.7-0.1-1.1-0.4-1.3c-0.2-0.2-0.6-0.4-1.2-0.4h-2.9c-0.6,0-1,0.1-1.3,0.4C73.6,82.2,73.5,82.7,73.5,83.3L73.5,83.3z M70.9,85
			v-2.4c0-1.1,0.3-1.8,0.8-2.3c0.5-0.5,1.5-0.7,2.8-0.7h4.1c1.3,0,2.2,0.2,2.7,0.7c0.5,0.5,0.8,1.2,0.8,2.3V85
			c0,1.1-0.3,1.8-0.8,2.3c-0.5,0.4-1.4,0.7-2.7,0.7h-4.2c-1.2,0-2.1-0.2-2.7-0.7C71.2,86.8,70.9,86,70.9,85L70.9,85z"/>
		<path d="M86.3,83.3v0.8c0,0.7,0.1,1.2,0.3,1.4c0.2,0.2,0.6,0.3,1.2,0.3h3.1c0.6,0,1-0.1,1.2-0.4c0.2-0.2,0.3-0.7,0.3-1.3v-0.8
			c0-0.7-0.1-1.1-0.4-1.3c-0.2-0.2-0.6-0.4-1.2-0.4h-2.9c-0.6,0-1,0.1-1.3,0.4C86.4,82.2,86.3,82.7,86.3,83.3L86.3,83.3z M83.7,85
			v-2.4c0-1.1,0.3-1.8,0.8-2.3c0.5-0.5,1.5-0.7,2.8-0.7h4.1c1.3,0,2.2,0.2,2.7,0.7c0.5,0.5,0.8,1.2,0.8,2.3V85
			c0,1.1-0.3,1.8-0.8,2.3c-0.5,0.4-1.4,0.7-2.7,0.7h-4.2c-1.2,0-2.1-0.2-2.7-0.7C84,86.8,83.7,86,83.7,85L83.7,85z"/>
		<polygon points="96.8,79.6 99.3,79.6 99.3,85.7 104.9,85.7 104.9,87.8 96.8,87.8 96.8,79.6 		"/>
		<path d="M108.6,85.2c0,0.4,0.1,0.6,0.2,0.7c0.1,0.1,0.4,0.2,0.9,0.2h3.2c0.7,0,1-0.2,1-0.7c0-0.3-0.1-0.5-0.4-0.6
			c-0.3-0.1-0.9-0.2-1.9-0.2h-1.5c-1.2,0-2.1-0.1-2.6-0.2c-0.6-0.1-0.9-0.4-1.1-0.8c-0.2-0.3-0.2-0.8-0.2-1.6c0-1,0.2-1.7,0.7-2
			c0.5-0.3,1.3-0.5,2.5-0.5h3.5c1.2,0,2.1,0.2,2.5,0.5c0.4,0.3,0.7,1,0.7,1.8v0.3h-2.5c0-0.3-0.1-0.5-0.2-0.6
			c-0.2-0.1-0.5-0.2-1-0.2h-2.7c-0.7,0-1,0.2-1,0.7s0.2,0.7,0.7,0.7c0.5,0,0.9,0,1.4,0h1.7c1.2,0,2,0.1,2.6,0.2
			c0.6,0.2,1,0.4,1.2,0.8c0.2,0.3,0.3,0.9,0.3,1.6c0,0.7-0.1,1.3-0.3,1.6c-0.2,0.4-0.6,0.6-1.1,0.8c-0.5,0.1-1.4,0.2-2.5,0.2h-3.3
			c-1.2,0-2-0.2-2.5-0.5c-0.4-0.3-0.7-0.9-0.7-1.7v-0.6H108.6L108.6,85.2z"/>
		<polygon points="113.1,9.2 112.3,9.2 112.3,11.3 111.6,11.3 111.6,9.2 110.8,9.2 110.8,8.6 113.1,8.6 113.1,9.2 		"/>
		<polygon points="113.4,8.6 114.5,8.6 115,10.4 115,10.4 115.4,8.6 116.5,8.6 116.5,11.3 115.8,11.3 115.8,9.3 115.8,9.3 
			115.2,11.3 114.7,11.3 114.1,9.3 114.1,9.3 114.1,11.3 113.4,11.3 113.4,8.6 		"/>
		<polygon fill="#E42313" points="116.5,73.9 93.1,73.9 83.9,73.9 83.9,52.2 77.8,52.2 77.8,52.2 93.1,30.3 116.5,30.3 116.5,73.9 
					"/>
		<polygon points="137.5,45.5 146.4,45.5 146.4,48.1 143.4,48.1 143.4,56.8 140.4,56.8 140.4,48.1 137.5,48.1 137.5,45.5 		"/>
		<polygon points="148.4,56.8 148.4,45.5 156.5,45.5 156.5,48 151.4,48 151.4,50.1 156.2,50.1 156.2,52.1 151.4,52.1 151.4,54.3 
			156.6,54.3 156.6,56.8 148.4,56.8 		"/>
		<path d="M186,52.6h3.1v0.6c0,1.3-0.3,2.2-0.9,2.8c-0.6,0.6-1.6,0.9-3.1,0.9h-1.8c-1.4,0-2.4-0.3-3.1-1c-0.7-0.6-1-1.7-1-3.1v-3.2
			c0-1.5,0.4-2.6,1.1-3.2c0.8-0.6,2.2-0.9,4.2-0.9c1.8,0,3,0.3,3.6,0.8c0.6,0.5,0.9,1.5,0.9,2.9v0.5H186v-0.2c0-0.5-0.1-0.8-0.4-1
			c-0.2-0.2-0.7-0.3-1.4-0.3c-0.8,0-1.3,0.1-1.6,0.4c-0.2,0.3-0.4,0.8-0.4,1.6v2.1c0,0.9,0.1,1.5,0.4,1.7c0.2,0.3,0.8,0.4,1.6,0.4
			c0.7,0,1.2-0.1,1.4-0.3c0.2-0.2,0.4-0.6,0.4-1.1V52.6L186,52.6z"/>
		<polygon points="190.5,45.5 193.5,45.5 193.5,49.8 197.4,49.8 197.4,45.5 200.4,45.5 200.4,56.8 197.4,56.8 197.4,52.4 
			193.5,52.4 193.5,56.8 190.5,56.8 190.5,45.5 		"/>
		<path d="M201.2,56.8l3.4-11.3h4.6l3.4,11.3h-3l-0.6-1.9h-4l-0.5,1.9H201.2L201.2,56.8z M205.5,52.6h2.8l-1.4-4.9L205.5,52.6
			L205.5,52.6z"/>
		<polygon points="213.3,45.5 216.3,45.5 216.3,54.2 221,54.2 221,56.8 213.3,56.8 213.3,45.5 		"/>
		<polygon points="222.1,45.5 225.1,45.5 225.1,54.2 229.8,54.2 229.8,56.8 222.1,56.8 222.1,45.5 		"/>
		<polygon points="230.9,56.8 230.9,45.5 239.1,45.5 239.1,48 233.9,48 233.9,50.1 238.7,50.1 238.7,52.1 233.9,52.1 233.9,54.3 
			239.2,54.3 239.2,56.8 230.9,56.8 		"/>
		<polygon points="241.1,45.5 246.1,45.5 249.4,54.1 249.4,45.5 252.4,45.5 252.4,56.8 247.3,56.8 244.1,48.3 244.1,56.8 
			241.1,56.8 241.1,45.5 		"/>
		<path d="M258.9,52.5v-2.1h5.2v2.1c0,1.8-0.3,3-0.9,3.6c-0.6,0.6-2,0.9-4,0.9c-1.9,0-3.3-0.3-4.1-0.8c-0.9-0.5-1.3-1.6-1.3-3.3
			v-3.3c0-1.6,0.4-2.7,1.3-3.3c0.8-0.6,2.3-0.9,4.3-0.9c2,0,3.3,0.3,3.9,0.8c0.6,0.5,0.9,1.5,0.9,2.9h-3c0-0.5-0.2-0.8-0.5-1
			c-0.4-0.2-0.8-0.2-1.3-0.2c-1,0-1.6,0.1-1.9,0.4c-0.3,0.3-0.5,0.9-0.5,1.9v2.1c0,0.9,0.1,1.5,0.4,1.8c0.3,0.3,0.9,0.4,1.8,0.4
			c0.8,0,1.3-0.1,1.5-0.4c0.3-0.3,0.4-0.8,0.4-1.6H258.9L258.9,52.5z"/>
		<polygon points="265.5,56.8 265.5,45.5 273.7,45.5 273.7,48 268.5,48 268.5,50.1 273.4,50.1 273.4,52.1 268.5,52.1 268.5,54.3 
			273.8,54.3 273.8,56.8 265.5,56.8 		"/>
		<path d="M125.6,33h2.9v8.7h3V33h2.9v-2.6h-8.9V33L125.6,33z M135.5,41.7h3v-4.4h3.9v4.4h3V30.4h-3v4.3h-3.9v-4.3h-3V41.7
			L135.5,41.7z M155.7,41.7v-2.5h-5.3v-2.2h4.8V35h-4.8v-2.1h5.2v-2.5h-8.2v11.3H155.7L155.7,41.7z M165.9,41.7v-4.1h4.6v-2.5h-4.6
			v-2.3h4.9v-2.5h-7.9v11.3H165.9L165.9,41.7z M173.1,40.9c0.9,0.6,2.1,0.9,3.7,0.9c1.9,0,3.3-0.3,4.1-0.9c0.8-0.6,1.3-1.7,1.3-3.3
			v-3.1c0-1.5-0.4-2.6-1.2-3.3c-0.8-0.7-2-1-3.8-1c-2.1,0-3.5,0.3-4.3,1c-0.8,0.7-1.1,1.7-1.1,3.1v3.4
			C171.8,39.3,172.3,40.3,173.1,40.9L173.1,40.9L173.1,40.9z M175.3,33.3c0.3-0.2,0.9-0.4,1.7-0.4c0.8,0,1.4,0.1,1.6,0.4
			c0.3,0.2,0.4,0.7,0.4,1.5v2.6c0,0.8-0.1,1.3-0.4,1.5c-0.3,0.2-0.8,0.3-1.6,0.3c-0.9,0-1.5-0.1-1.7-0.4c-0.2-0.3-0.4-0.8-0.4-1.5
			l0-2.5C174.9,34,175.1,33.5,175.3,33.3L175.3,33.3L175.3,33.3z M186.6,41.7v-3h2.2c0.9,0,1.3,0.5,1.3,1.4v1.6h3v-2.3
			c0-1.3-0.8-2-2.3-2.1c1-0.3,1.7-0.6,2-1c0.3-0.4,0.4-1.3,0.4-2.6c0-1.2-0.3-2.1-0.9-2.6c-0.6-0.5-1.5-0.8-2.9-0.8h-6v11.3H186.6
			L186.6,41.7z M186.6,33h2.5c0.5,0,0.8,0.1,0.9,0.4c0.1,0.2,0.2,0.6,0.2,1.1c0,0.7-0.1,1.2-0.2,1.4c-0.1,0.2-0.5,0.3-1,0.3h-2.3V33
			L186.6,33z M194.8,41.7h3v-8l2.6,8h2.6l2.6-8v8h3V30.4h-4.9l-2,7.1l-2.2-7.1h-4.7V41.7L194.8,41.7z M210.6,38
			c0,1.6,0.4,2.7,1.1,3.1c0.7,0.4,2.1,0.7,4,0.7c1.7,0,2.9-0.3,3.6-0.8c0.7-0.6,1-1.6,1-3.1v-7.5h-3v7.4c0,0.5-0.1,0.9-0.3,1.1
			c-0.2,0.2-0.7,0.3-1.4,0.3c-0.8,0-1.3-0.1-1.5-0.2c-0.2-0.2-0.4-0.6-0.4-1.2v-7.4h-3V38L210.6,38z M222.1,41.7h7.7v-2.6h-4.7v-8.7
			h-3V41.7L222.1,41.7z M233,41.7l0.5-1.9h4l0.6,1.9h3.1l-3.4-11.3h-4.6l-3.4,11.3H233L233,41.7z M235.6,32.7l1.4,4.9h-2.8
			L235.6,32.7L235.6,32.7z M249,35.7l2.9-2.6v8.6h3V30.4h-3.5l-4,3.3L249,35.7L249,35.7z"/>
		<path d="M260.6,33.5c-0.3,0.3-0.8,0.5-1.2,0.5c-0.5,0-0.9-0.2-1.3-0.5c-0.3-0.3-0.5-0.8-0.5-1.3c0-0.5,0.2-0.9,0.6-1.3
			c0.3-0.3,0.7-0.5,1.2-0.5c0.5,0,0.9,0.2,1.2,0.5c0.3,0.3,0.5,0.8,0.5,1.2C261.1,32.7,261,33.2,260.6,33.5L260.6,33.5z M258.3,31.2
			c-0.3,0.3-0.4,0.6-0.4,1c0,0.4,0.1,0.8,0.4,1c0.3,0.3,0.6,0.4,1,0.4c0.4,0,0.7-0.1,1-0.4c0.3-0.3,0.4-0.6,0.4-1
			c0-0.4-0.1-0.7-0.4-1c-0.3-0.3-0.6-0.4-1-0.4C259,30.8,258.6,30.9,258.3,31.2L258.3,31.2z M258.6,33.2v-2c0.1,0,0.3,0,0.5,0
			c0.2,0,0.4,0,0.4,0c0.2,0,0.3,0,0.4,0.1c0.2,0.1,0.3,0.3,0.3,0.5c0,0.2,0,0.3-0.1,0.4c-0.1,0.1-0.2,0.1-0.3,0.1
			c0.1,0,0.2,0.1,0.3,0.1c0.1,0.1,0.2,0.2,0.2,0.4V33c0,0,0,0,0,0.1c0,0,0,0,0,0.1l0,0.1h-0.5c0-0.1,0-0.2,0-0.3c0-0.1,0-0.2,0-0.2
			c0-0.1-0.1-0.1-0.1-0.1c0,0-0.1,0-0.2,0l-0.1,0h-0.1v0.7H258.6L258.6,33.2z M259.5,31.6c-0.1,0-0.2,0-0.3,0h-0.1v0.6h0.2
			c0.1,0,0.2,0,0.3-0.1c0.1,0,0.1-0.1,0.1-0.2C259.7,31.8,259.6,31.7,259.5,31.6L259.5,31.6z"/>
	</g>
	<polygon points="158.9,56.8 161.9,56.8 161.9,48.8 164.5,56.8 167.1,56.8 169.7,48.8 169.7,56.8 172.8,56.8 172.8,45.5 167.9,45.5 
		165.8,52.6 163.6,45.5 158.9,45.5 158.9,56.8 	"/>
	<path d="M128.3,53.1c0,0.5,0.1,0.8,0.2,1c0.1,0.2,0.4,0.2,0.9,0.2h3.3c0.7,0,1-0.3,1-0.9c0-0.4-0.1-0.7-0.4-0.8
		c-0.3-0.1-0.9-0.2-1.9-0.2h-1.6c-1.2,0-2.1-0.1-2.7-0.3c-0.6-0.2-1-0.5-1.2-1c-0.2-0.4-0.2-1.1-0.2-2.1c0-1.4,0.3-2.3,0.8-2.8
		c0.5-0.4,1.4-0.7,2.6-0.7h3.6c1.3,0,2.1,0.2,2.6,0.7c0.4,0.5,0.7,1.3,0.7,2.5v0.4h-2.6c0-0.4-0.1-0.7-0.2-0.9
		c-0.2-0.1-0.5-0.2-1-0.2h-2.7c-0.7,0-1,0.3-1,0.9s0.2,0.9,0.7,0.9c0.5,0,1,0,1.4,0h1.7c1.2,0,2.1,0.1,2.7,0.3
		c0.6,0.2,1,0.6,1.2,1.1c0.2,0.5,0.3,1.2,0.3,2.1c0,1-0.1,1.7-0.3,2.1c-0.2,0.5-0.6,0.8-1.2,1c-0.6,0.2-1.4,0.3-2.6,0.3H129
		c-1.2,0-2.1-0.2-2.5-0.7c-0.5-0.4-0.7-1.2-0.7-2.3v-0.8H128.3L128.3,53.1z"/>
	<g>
		<path fill="#E42313" d="M129.1,62.7L125.4,74h2.7l0.7-2.1h4.3l0.7,2.1h2.7l-3.8-11.3H129.1z M132.4,69.9h-3l1.5-4.6L132.4,69.9z"
			/>
		<path fill="#E42313" d="M144.7,70.2c0,1-0.2,1.3-0.3,1.4c-0.1,0.1-0.5,0.3-1.9,0.3c-1.3,0-1.7-0.2-1.9-0.3
			c-0.1-0.1-0.3-0.4-0.3-1.3v-7.5h-2.5v7.5c0,1.6,0.3,2.6,1,3.1c0.6,0.5,1.9,0.7,3.9,0.7c1.9,0,3.1-0.3,3.7-0.8c0.6-0.5,1-1.6,1-3.2
			v-7.4h-2.5V70.2z"/>
		<path fill="#E42313" d="M154.4,67.2c-1.8-0.1-2.2-0.2-2.3-0.3c-0.1,0-0.2-0.2-0.2-1c0-0.5,0.1-0.8,0.3-0.9
			c0.2-0.1,0.6-0.2,1.8-0.2c1,0,1.3,0.1,1.4,0.2c0.1,0,0.2,0.2,0.3,0.9c0,0.1,0,0.1,0,0.2l0,0.2h2.5v-0.7c0-1.2-0.3-2-1-2.5
			c-0.6-0.4-1.7-0.6-3.4-0.6c-1.8,0-3,0.2-3.6,0.7c-0.6,0.5-1,1.4-1,2.7c0,1.3,0.3,2.2,0.8,2.6c0.5,0.4,1.6,0.7,3.4,0.8l1.1,0.1
			c0.8,0,1,0.2,1.1,0.2c0.1,0.1,0.2,0.3,0.2,0.9c0,0.8-0.2,1.1-0.3,1.2c-0.1,0.1-0.5,0.2-1.6,0.2c-1.5,0-1.9-0.1-2-0.2
			c-0.1-0.1-0.3-0.3-0.3-1.2l0-0.5h-2.5l0,0.6c0,1.4,0.3,2.2,0.9,2.7c0.6,0.4,1.8,0.7,3.5,0.7c2,0,3.2-0.2,3.8-0.7
			c0.6-0.5,0.9-1.4,0.9-3c0-1.3-0.3-2.1-0.8-2.5C157.1,67.6,156,67.3,154.4,67.2z"/>
		<polygon fill="#E42313" points="159.5,65.1 162.6,65.1 162.6,74 165.2,74 165.2,65.1 168.4,65.1 168.4,62.7 159.5,62.7 		"/>
		<path fill="#E42313" d="M178.9,68.5c0.3-0.4,0.4-1.2,0.4-2.4c0-1.3-0.3-2.2-0.8-2.7c-0.6-0.5-1.5-0.8-2.9-0.8H170V74h2.5v-3.6h2.7
			c1,0,1.4,0.4,1.4,1.4V74h2.5v-2.6c0-1.3-0.5-1.9-1.2-2.2C178.4,69.1,178.7,68.8,178.9,68.5z M172.5,65h2.8c0.8,0,1,0.2,1.1,0.3
			c0.1,0.1,0.2,0.4,0.2,1.3c0,0.9-0.2,1.2-0.3,1.3c-0.1,0.1-0.4,0.3-1.2,0.3h-2.7V65z"/>
		<path fill="#E42313" d="M184.1,62.7L180.4,74h2.7l0.7-2.1h4.3l0.7,2.1h2.7l-3.8-11.3H184.1z M187.4,69.9h-3l1.5-4.6L187.4,69.9z"
			/>
		<polygon fill="#E42313" points="195.3,62.7 192.8,62.7 192.8,74 200.4,74 200.4,71.7 195.3,71.7 		"/>
		<rect x="201.9" y="62.7" fill="#E42313" width="2.5" height="11.3"/>
		<path fill="#E42313" d="M213.1,62.7h-3.4L205.9,74h2.7l0.7-2.1h4.3l0.7,2.1h2.7L213.1,62.7z M212.9,69.9h-3l1.5-4.6L212.9,69.9z"
			/>
	</g>
</g>
</svg>
