<?xml version="1.0" encoding="UTF-8"?>
<svg width="86.765mm" height="31.57mm" version="1.1" viewBox="0 0 86.764809 31.570084" xmlns="http://www.w3.org/2000/svg">
 <defs>
  <clipPath id="clip-path">
   <polygon class="cls-1" points="329.93 1.84 329.93 75.57 2.45 75.57 2.45 1.84 166.19 1.84" clip-rule="evenodd" fill="none"/>
  </clipPath>
  <clipPath id="clip-path-2">
   <rect class="cls-2" x="1.96" y="1.14" width="328" height="75" fill="none"/>
  </clipPath>
  <clipPath id="clip-path-3">
   <path class="cls-2" d="m321.77 75.57c-29-26.6-80.36-28.86-80.88-28.88l-2.3-0.08-1.71-1.55c-0.33-0.29-33.78-30.61-80.22-30.61-55.36 0-93 41.54-93.35 41.95l-2.11 2.34-58.75-5.66 1.84-12.33 51.92 4.87c9.36-9.39 46.72-43.77 100.45-43.77 45.67 0 79 25.78 86.91 32.36 10.87 0.68 57.24 5.12 86.37 31.84l-8.17 9.52" fill="none"/>
  </clipPath>
  <clipPath id="clip-path-5">
   <path class="cls-2" d="m38.44 89.38c-1.4-2.9-4.7-8.6-12.88-8.6-11.06 0-15 9.26-15 16.21 0 7.94 5 16.29 14.86 16.29a13.82 13.82 0 0 0 13 -8.44h9.58a23.47 23.47 0 0 1 -22.6 16.3c-15.02 0-23.4-12.32-23.4-24.14 0-12.41 9-24.08 23.48-24.08 13 0 20.72 9.68 22.45 16.46h-9.49" fill="none"/>
  </clipPath>
  <clipPath id="clip-path-6">
   <path class="cls-2" d="m90.74 120v-7.11h-0.17c-3.3 5.63-9.33 8.27-15.52 8.27-15.43 0-24.27-11.83-24.27-23.9 0-11.16 7.84-24.31 24.27-24.31 6.36 0 12.22 2.65 15.52 7.69h0.17v-6.47h8.58v45.83zm-15.68-39.22c-10.56 0-15.68 9.18-15.68 16.37 0 8.27 6.52 16.13 15.6 16.13a16 16 0 0 0 15.92 -16.12c0-9.76-7.01-16.38-15.84-16.38z" fill="none"/>
  </clipPath>
  <clipPath id="clip-path-7">
   <path class="cls-2" d="m204.5 120v-7.11h-0.17c-3.3 5.63-9.33 8.27-15.52 8.27-15.43 0-24.27-11.83-24.27-23.9 0-11.16 7.84-24.31 24.27-24.31 6.36 0 12.22 2.65 15.52 7.69h0.17v-6.47h8.58v45.83zm-15.68-39.2c-10.56 0-15.68 9.18-15.68 16.37 0 8.27 6.52 16.13 15.6 16.13a16 16 0 0 0 15.93 -16.13c-0.01-9.77-7.02-16.39-15.86-16.39z" fill="none"/>
  </clipPath>
  <clipPath id="clip-path-8">
   <rect class="cls-2" x="218.59" y="58.78" width="8.58" height="61.2" fill="none"/>
  </clipPath>
  <clipPath id="clip-path-9">
   <path class="cls-2" d="m239.69 100.79c2.15 8.85 9.25 12.49 15 12.49a14.61 14.61 0 0 0 13 -7.7h8.59a23.31 23.31 0 0 1 -22 15.55c-13 0-23.28-11.17-23.28-24.15 0-13.73 10.57-24.07 23.44-24.07a23.47 23.47 0 0 1 23.28 23.49c0 1.49-0.17 3.81-0.25 4.38zm29.55-6.62a14.85 14.85 0 0 0 -29.55 0z" fill="none"/>
  </clipPath>
  <clipPath id="clip-path-10">
   <path class="cls-2" d="m289.54 85.9c0.08-1.87 1.63-5.6 7.18-5.6a7.66 7.66 0 0 1 7.63 6.27h8.34c0-3.56-3.68-13.66-15.9-13.66s-15.05 8.64-15.23 12.66c-0.66 14.89 23.95 12.25 23.52 21.93-0.08 1.8-1.8 6.11-8.91 6.11a9 9 0 0 1 -9.31 -8h-8.22c0.44 4.49 3.67 15.56 17.65 15.56s16.62-9.89 16.78-13.57c0.69-15.6-23.85-14.6-23.53-21.7" fill="none"/>
  </clipPath>
  <clipPath id="clip-path-11">
   <path class="cls-2" d="m138.46 85.9c0.08-1.87 1.63-5.6 7.18-5.6a7.66 7.66 0 0 1 7.63 6.27h8.34c0-3.56-3.67-13.66-15.9-13.66s-15.05 8.64-15.23 12.66c-0.67 14.89 24 12.25 23.52 21.93-0.08 1.8-1.8 6.11-8.91 6.11a9 9 0 0 1 -9.31 -8h-8.22c0.44 4.49 3.67 15.56 17.65 15.56s16.62-9.89 16.78-13.57c0.69-15.6-23.85-14.6-23.53-21.7" fill="none"/>
  </clipPath>
  <clipPath id="clip-path-12">
   <path class="cls-2" d="m125.58 72.92c-8.5 0-11.47 4.3-13.12 6.2h-0.1v-5h-8v45.88h8.58v-25c0-3.39 0-13.75 11.31-13.75a7.89 7.89 0 0 1 2.82 0.55l3.8-7.79a14.81 14.81 0 0 0 -5.31 -1.06" fill="none"/>
  </clipPath>
 </defs>
 <g transform="translate(305.7 -.75663)">
  <g transform="matrix(.26458 0 0 .26458 -306.23 .26715)" fill="#fff">
   <g class="cls-3" clip-path="url(#clip-path)">
    <g class="cls-4" clip-path="url(#clip-path-2)" fill="#fff">
     <g class="cls-5" clip-path="url(#clip-path-3)" fill="#fff">
      <g class="cls-4" clip-path="url(#clip-path-2)" fill="#fff">
       <rect class="cls-6" x="-2.55" y="-3.16" width="337.49" height="83.73" fill="#fff"/>
      </g>
     </g>
    </g>
   </g>
   <g class="cls-7" clip-path="url(#clip-path-5)">
    <rect class="cls-8" x="-3.04" y="67.92" width="55.98" height="58.22" fill="#fff"/>
   </g>
   <g class="cls-9" clip-path="url(#clip-path-6)">
    <rect class="cls-6" x="45.79" y="67.92" width="58.53" height="58.22" fill="#fff"/>
   </g>
   <g class="cls-10" clip-path="url(#clip-path-7)">
    <rect class="cls-8" x="159.54" y="67.92" width="58.54" height="58.22" fill="#fff"/>
   </g>
   <g class="cls-11" clip-path="url(#clip-path-8)">
    <rect class="cls-8" x="213.59" y="53.78" width="18.58" height="71.2" fill="#fff"/>
   </g>
   <g class="cls-12" clip-path="url(#clip-path-9)">
    <rect class="cls-6" x="226.11" y="67.92" width="56.72" height="58.22" fill="#fff"/>
   </g>
   <g class="cls-13" clip-path="url(#clip-path-10)">
    <rect class="cls-8" x="273.63" y="67.92" width="44.45" height="58.22" fill="#fff"/>
   </g>
   <g class="cls-14" clip-path="url(#clip-path-11)">
    <rect class="cls-8" x="122.55" y="67.92" width="44.45" height="58.22" fill="#fff"/>
   </g>
   <g class="cls-15" clip-path="url(#clip-path-12)">
    <rect class="cls-8" x="99.37" y="67.92" width="36.52" height="57.06" fill="#fff"/>
   </g>
  </g>
 </g>
</svg>
